<?xml version="1.0" encoding="UTF-8"?>
<!DOCTYPE svg PUBLIC "-//W3C//DTD SVG 1.1//EN" "http://www.w3.org/Graphics/SVG/1.1/DTD/svg11.dtd">
<svg width="42" height="42" viewBox="0 0 42 42" fill="none" xmlns="http://www.w3.org/2000/svg">
<g clip-path="url(#clip0_1_17)">
<path opacity="0.3" d="M23.7606 19.669H24.155V19.9155H23.7606V19.669Z" fill="#5B91BD"/>
<path d="M24.1549 19.9648C24.1821 19.9648 24.2042 19.9426 24.2042 19.9155V19.669C24.2042 19.6419 24.1821 19.6197 24.1549 19.6197H23.7606C23.7335 19.6197 23.7113 19.6419 23.7113 19.669V19.9155C23.7113 19.9426 23.7335 19.9648 23.7606 19.9648H23.662V20.0141H24.2535V19.9648H24.1549ZM23.7606 19.669H24.1549V19.9155H23.7606V19.669Z" fill="#5B91BD"/>
</g>
<circle cx="21" cy="21" r="21" fill="#5B91BD"/>
<path d="M9.42236 13.0511C9.42236 11.4253 9.42114 9.9187 9.42077 8.77045C9.42061 8.62951 9.449 8.48993 9.50432 8.35967C9.55964 8.22942 9.64081 8.11105 9.74317 8.01134C9.84554 7.91162 9.9671 7.83252 10.1009 7.77855C10.2347 7.72458 10.3781 7.6968 10.523 7.6968C15.2401 7.69549 28.7036 7.69144 32.6539 7.69013C32.7988 7.68983 32.9424 7.71736 33.0763 7.77113C33.2102 7.82491 33.3319 7.90388 33.4344 8.00351C33.5369 8.10314 33.6182 8.22147 33.6737 8.35173C33.7291 8.48199 33.7575 8.62161 33.7574 8.76259C33.7587 12.5076 33.7615 19.188 33.7629 23.3838C34.8722 25.0451 35.9811 26.7065 37.0896 28.3681C37.2059 28.5423 37.2677 28.7456 37.2676 28.9533C37.2676 29.0912 37.2676 29.2313 37.2676 29.3653C37.2674 29.5786 37.18 29.7831 37.0249 29.9338C36.8697 30.0846 36.6593 30.1692 36.4401 30.169H6.74495C6.52581 30.169 6.31561 30.0845 6.16047 29.9339C6.00532 29.7833 5.91792 29.579 5.91743 29.3657C5.91743 29.1963 5.91609 29.0427 5.91547 28.8558C5.91464 28.6433 5.97856 28.4353 6.09918 28.2581C7.20883 26.6301 8.31774 25.0024 9.42592 23.3748C9.42543 21.3299 9.42371 16.8626 9.42236 13.0511Z" fill="white"/>
<path d="M30.6945 9.46539C25.403 9.46709 14.5341 9.47111 11.2394 9.47184C11.2409 13.1524 11.2435 17.5275 11.2452 21.484V22.4789C15.0193 22.4774 28.8724 22.4723 32.5352 22.4713C32.5336 18.4909 32.5309 12.8073 32.5295 9.46478L30.6945 9.46539Z" fill="white"/>
<path d="M32.7864 25.0685C32.4693 24.5408 32.1552 24.0175 31.9417 23.662H11.779C11.3705 24.3646 10.5161 25.839 10.0563 26.6197H33.7183C33.4922 26.2439 33.1377 25.6529 32.7864 25.0685Z" fill="#C6C6C6"/>
<path d="M16.9301 27.4092C16.805 27.9332 16.6491 28.5942 16.5634 28.9859C18.2236 28.9859 24.0713 28.9859 26.0282 28.9859C25.8897 28.3592 25.5731 27.0391 25.4909 26.7009C25.4909 26.7009 25.4836 26.6707 25.472 26.6197H17.1203L17.1006 26.7009C17.0697 26.8274 17.0055 27.0934 16.9301 27.4092Z" fill="white"/>
<path d="M9.42079 12.8945L9.41932 8.72641C9.41932 8.47876 9.41662 8.25446 9.56149 8.04153C9.62297 7.95241 9.7017 7.87649 9.79305 7.81826C9.8844 7.76003 9.9865 7.72068 10.0933 7.70252C10.252 7.68614 10.4117 7.68283 10.5709 7.69261H11.0181C12.6453 7.69261 14.2724 7.69212 15.8995 7.69114L21.9315 7.68931L27.7815 7.68747L32.0555 7.68588C32.1987 7.67743 32.3423 7.67976 32.4852 7.69286C32.6962 7.72802 32.8852 7.84414 33.0117 8.01646C33.1308 8.19943 33.185 8.41696 33.1658 8.63432C33.1658 8.87004 33.1658 9.10567 33.1658 9.34122C33.1658 10.4138 33.1662 11.4864 33.167 12.5591C33.168 14.9946 33.1689 17.4303 33.1698 19.866L33.1709 23.1803C33.1578 23.3124 33.1614 23.4456 33.1816 23.5768C33.2184 23.6679 33.2684 23.7531 33.33 23.8296L33.5168 24.1167C33.7209 24.4298 33.9246 24.743 34.1279 25.0562L35.4015 27.013L36.0292 27.9792C36.1311 28.1357 36.2329 28.2923 36.3347 28.449C36.4482 28.5984 36.5455 28.7595 36.625 28.9294C36.6707 29.0809 36.688 29.2395 36.6759 29.3972C36.6909 29.5433 36.6784 29.6908 36.6392 29.8322C36.6021 29.9245 36.5401 30.0047 36.4601 30.0639C36.3801 30.1231 36.2853 30.1591 36.1861 30.1677C36.0957 30.1752 36.0024 30.1689 35.9122 30.1689H7.43267C7.10583 30.1689 6.77813 30.1762 6.45141 30.1689C6.30999 30.1687 6.17434 30.1129 6.07374 30.0136C5.88504 29.8266 5.91602 29.5771 5.91455 29.3325C5.90335 29.1786 5.91523 29.0238 5.94982 28.8733C6.01907 28.7001 6.11321 28.538 6.22927 28.3919C6.44088 28.0734 6.65261 27.7549 6.86446 27.4364C7.29356 26.791 7.72257 26.1455 8.1515 25.5C8.3574 25.1902 8.56304 24.8801 8.76845 24.5698C8.87115 24.4149 8.97381 24.2597 9.07643 24.1042C9.13358 24.018 9.19073 23.9318 9.24787 23.8455C9.31692 23.7619 9.37301 23.6685 9.4143 23.5683C9.4312 23.4636 9.43469 23.3571 9.42471 23.2515V22.9437C9.42471 22.7205 9.42471 22.4973 9.42471 22.274C9.42471 21.7399 9.4245 21.2059 9.42409 20.6718L9.42262 16.8407C9.42213 15.5253 9.42168 14.2099 9.42128 12.8944C9.42128 12.5167 8.83347 12.5161 8.83347 12.8944C8.83445 15.8541 8.83552 18.8137 8.83666 21.7734L8.83739 23.4903L8.87768 23.3421C7.90936 24.8085 6.93761 26.2725 5.96243 27.7342C5.73808 28.0716 5.44002 28.416 5.35748 28.8227C5.32817 29.0085 5.31808 29.1968 5.32736 29.3846C5.31696 29.5674 5.33034 29.7507 5.36716 29.93C5.43463 30.1669 5.57725 30.3756 5.7736 30.5246C5.96994 30.6737 6.20942 30.7552 6.45606 30.7567C6.89434 30.7654 7.33384 30.7567 7.77225 30.7567H36.0145C36.055 30.7567 36.0955 30.7574 36.1359 30.7567C36.3755 30.755 36.6086 30.6781 36.802 30.5368C36.9954 30.3955 37.1394 30.1969 37.2135 29.9693C37.2568 29.8028 37.2738 29.6305 37.2639 29.4587C37.2763 29.2457 37.2576 29.0319 37.2083 28.8243C37.1416 28.6314 37.0469 28.4493 36.9273 28.2839L36.5541 27.7091C36.0733 26.9696 35.5925 26.2301 35.1117 25.4906C34.6476 24.7772 34.1836 24.0638 33.7195 23.3503L33.7597 23.4984C33.7592 21.8021 33.7586 20.1056 33.7579 18.4092C33.7573 16.569 33.7566 14.7289 33.7558 12.8888C33.7558 12.0496 33.7555 11.2103 33.7548 10.3711V9.22577C33.7548 8.86779 33.8005 8.46971 33.7046 8.12164C33.6467 7.91633 33.5427 7.7269 33.4005 7.56771C33.2584 7.40853 33.0818 7.28377 32.8841 7.20292C32.6134 7.09175 32.3331 7.0986 32.0464 7.09872H30.7046L27.0591 7.10056L22.6523 7.1019L18.0234 7.10337L13.7883 7.10471L10.4878 7.10569C10.1417 7.10569 9.81045 7.12025 9.50504 7.30675C9.32458 7.41733 9.17141 7.56713 9.05692 7.74499C8.94243 7.92285 8.86957 8.12421 8.84376 8.33408C8.82633 8.55034 8.82224 8.76746 8.83152 8.98422V9.68133C8.83152 10.197 8.83152 10.7125 8.83152 11.2281C8.83152 11.7839 8.83172 12.3397 8.83213 12.8955C8.83311 13.2723 9.42091 13.2729 9.42079 12.8945Z" fill="#211715"/>
<path d="M34.6199 28.9893H8.48483C8.1319 28.9893 7.77799 28.9817 7.42517 28.9893C7.41001 28.9893 7.39485 28.9893 7.37981 28.9893C7.00517 28.9893 7.00456 29.574 7.37981 29.574H33.5153C33.8682 29.574 34.2221 29.5818 34.5749 29.574C34.5901 29.574 34.6051 29.574 34.6203 29.574C34.9948 29.574 34.9954 28.9893 34.6203 28.9893H34.6199Z" fill="#211715"/>
<path d="M32.7479 25.2293C32.4662 24.7548 32.1846 24.2802 31.903 23.8055C31.877 23.7646 31.8398 23.7306 31.7951 23.707C31.7504 23.6834 31.6998 23.671 31.6482 23.671H13.9695C13.1529 23.671 12.3327 23.6507 11.5162 23.671C11.5039 23.671 11.4926 23.671 11.4808 23.671C11.4292 23.6709 11.3785 23.6833 11.3338 23.7069C11.2891 23.7305 11.2519 23.7645 11.2259 23.8055C10.6523 24.8039 10.0822 25.8038 9.50291 26.7995C9.47767 26.8409 9.46454 26.8876 9.46479 26.9351C9.46504 26.9826 9.47867 27.0292 9.50434 27.0704C9.53002 27.1115 9.56686 27.1459 9.61128 27.17C9.65569 27.1942 9.70615 27.2073 9.75774 27.2082H32.4598C32.7681 27.2082 33.0774 27.2152 33.3856 27.2082C33.3988 27.2082 33.4121 27.2082 33.4252 27.2082C33.4768 27.2073 33.5273 27.1942 33.5717 27.1701C33.6162 27.1459 33.653 27.1116 33.6787 27.0704C33.7044 27.0292 33.718 26.9826 33.7183 26.9351C33.7186 26.8877 33.7054 26.8409 33.6802 26.7995C33.3697 26.276 33.0589 25.7526 32.7479 25.2293C32.5657 24.9224 32.0558 25.1962 32.2382 25.5034C32.5489 26.0268 32.8597 26.5503 33.1704 27.0737L33.4252 26.6649H10.7232C10.4166 26.6649 10.1037 26.6484 9.79734 26.6649C9.78418 26.6656 9.7709 26.6649 9.75774 26.6649L10.0126 27.0737C10.5918 26.0778 11.1621 25.0781 11.7357 24.0797L11.4808 24.2143H30.8215C31.0835 24.2143 31.3512 24.2291 31.6128 24.2143C31.6245 24.2136 31.6364 24.2143 31.6482 24.2143L31.3933 24.0797C31.6747 24.5544 31.9563 25.029 32.2382 25.5034C32.4204 25.8107 32.9303 25.5364 32.7479 25.2293Z" fill="#211715"/>
<path d="M16.8943 29.3653C17.156 28.57 17.4436 27.7777 17.7318 26.9858C17.7622 26.9118 17.7449 26.8334 17.6836 26.767C17.6223 26.7006 17.5217 26.6513 17.4028 26.6295C17.2825 26.6099 17.1544 26.6201 17.0462 26.6579C16.9379 26.6957 16.858 26.7582 16.8237 26.8318C16.5357 27.6236 16.2481 28.4159 15.9862 29.2113C15.9561 29.2853 15.9735 29.3636 16.0348 29.43C16.096 29.4963 16.1965 29.5456 16.3152 29.5677C16.4356 29.5873 16.5637 29.5772 16.672 29.5393C16.7803 29.5015 16.8601 29.439 16.8943 29.3653Z" fill="#211715"/>
<path d="M24.862 26.9864C25.1492 27.7779 25.4335 28.5701 25.6971 29.3647C25.7302 29.4388 25.8096 29.5017 25.918 29.5397C26.0263 29.5776 26.1547 29.5875 26.2748 29.567C26.3949 29.5466 26.4969 29.4976 26.5584 29.4308C26.62 29.364 26.6359 29.2848 26.6028 29.2108C26.3393 28.4162 26.0549 27.624 25.7675 26.8324C25.7344 26.7583 25.6549 26.6954 25.5466 26.6575C25.4383 26.6196 25.31 26.6097 25.1899 26.6301C25.0698 26.6506 24.9678 26.6996 24.9063 26.7664C24.8448 26.8332 24.8288 26.9123 24.862 26.9864Z" fill="#211715"/>
<path d="M29.8624 8.87396L26.3224 8.87512L22.113 8.87652L17.8052 8.87803L13.9703 8.8792L11.1897 8.88001H10.9383C10.8616 8.88104 10.7884 8.9108 10.7341 8.96297C10.6799 9.01515 10.649 9.08562 10.6479 9.1594C10.6486 10.9609 10.6495 12.7623 10.6504 14.5637C10.6516 16.4447 10.6525 18.3259 10.6533 20.2071C10.6533 20.674 10.6533 21.1409 10.6533 21.608C10.6545 21.6817 10.6854 21.7522 10.7396 21.8043C10.7939 21.8565 10.8671 21.8863 10.9437 21.8873L14.08 21.8862L18.5464 21.8846L23.5287 21.8828L28.0776 21.8812L31.381 21.8801H31.6533C31.7299 21.879 31.8031 21.8493 31.8574 21.7971C31.9116 21.7449 31.9425 21.6745 31.9437 21.6007L31.9415 16.6337C31.9407 14.9411 31.9399 13.2485 31.9392 11.5558L31.9381 9.15265C31.937 9.07888 31.9061 9.00842 31.8518 8.95626C31.7976 8.90409 31.7244 8.87431 31.6477 8.87326L29.8624 8.87396C29.4887 8.87396 29.4881 9.43273 29.8624 9.43273H31.6473L31.3569 9.15335C31.3576 10.6638 31.3582 12.1743 31.359 13.6848C31.3597 15.4177 31.3605 17.1505 31.3613 18.8834C31.3613 19.7894 31.3617 20.6954 31.3625 21.6014L31.6529 21.3221L28.5673 21.323L24.1272 21.3245L19.1463 21.3262L14.5743 21.3279L11.2234 21.3292H10.9439L11.2343 21.6085C11.2329 20.3341 11.2325 19.0596 11.2329 17.7851L11.23 12.1471C11.2296 11.1514 11.2291 10.1557 11.2287 9.15998L10.9383 9.43937L13.5632 9.43774L17.3014 9.43646L21.5821 9.43506L25.8342 9.43355L29.471 9.43238H29.863C30.2362 9.43273 30.2368 8.87396 29.8624 8.87396Z" fill="#211715"/>
<defs>
<clipPath id="clip0_1_17">
<rect width="0.591549" height="0.591549" fill="white" transform="translate(23.662 19.5211)"/>
</clipPath>
</defs>
</svg>


