<?xml version="1.0" encoding="UTF-8"?>
<!DOCTYPE svg PUBLIC "-//W3C//DTD SVG 1.1//EN" "http://www.w3.org/Graphics/SVG/1.1/DTD/svg11.dtd">
<!-- Creator: CorelDRAW X7 -->
<svg width="107" height="42" viewBox="0 0 107 42" fill="none" xmlns="http://www.w3.org/2000/svg">
<rect width="99" height="39" fill="white"/>
<path opacity="0.3" d="M13 10.5H41V28H13V10.5Z" fill="#699BF7"/>
<path d="M41 31.5C42.925 31.5 44.5 29.925 44.5 28V10.5C44.5 8.575 42.925 7 41 7H13C11.075 7 9.5 8.575 9.5 10.5V28C9.5 29.925 11.075 31.5 13 31.5H6V35H48V31.5H41ZM13 10.5H41V28H13V10.5Z" fill="#699BF7"/>
<path d="M28.72 18.72V20.115H28.705V22.59C28.705 23.01 28.575 23.35 28.315 23.61C28.055 23.86 27.715 23.985 27.295 23.985H25.3V22.59H27.205C27.255 22.59 27.28 22.565 27.28 22.515V20.115H25.735V18.72H27.295V16.47C27.295 16.42 27.27 16.395 27.22 16.395H25.315V15H27.31C27.73 15 28.07 15.13 28.33 15.39C28.59 15.64 28.72 15.975 28.72 16.395V18.72Z" fill="#F5F5F5"/>
<path d="M52.65 11.51C52.65 11.23 52.6033 10.9733 52.51 10.74C52.4167 10.5067 52.27 10.3233 52.07 10.19C51.8767 10.05 51.63 9.98 51.33 9.98C51.2633 9.98 51.1967 9.98 51.13 9.98C51.0633 9.97333 50.9967 9.97 50.93 9.97C50.7633 9.97 50.6567 9.98667 50.61 10.02C50.5633 10.0467 50.54 10.1533 50.54 10.34C50.54 10.7933 50.54 11.25 50.54 11.71C50.54 12.17 50.5433 12.6267 50.55 13.08C50.65 13.1667 50.7667 13.2233 50.9 13.25C51.0333 13.27 51.1633 13.28 51.29 13.28C51.6367 13.28 51.9067 13.1967 52.1 13.03C52.3 12.8567 52.44 12.6333 52.52 12.36C52.6067 12.0867 52.65 11.8033 52.65 11.51ZM54.09 11.48C54.09 11.92 54.0133 12.28 53.86 12.56C53.7067 12.8333 53.4967 13.0467 53.23 13.2C52.97 13.3533 52.67 13.46 52.33 13.52C51.9967 13.5733 51.6433 13.6 51.27 13.6C51.15 13.6 51.03 13.5933 50.91 13.58C50.79 13.5667 50.67 13.5533 50.55 13.54C50.55 14.0267 50.55 14.5133 50.55 15C50.55 15.48 50.55 15.9633 50.55 16.45C50.55 16.5033 50.56 16.56 50.58 16.62C50.6067 16.68 50.6533 16.71 50.72 16.71C50.8067 16.71 50.89 16.7067 50.97 16.7C51.0567 16.6933 51.1433 16.69 51.23 16.69C51.2767 16.69 51.3133 16.7167 51.34 16.77C51.3733 16.8233 51.39 16.8667 51.39 16.9C51.39 16.9467 51.3733 16.9833 51.34 17.01C51.3067 17.0367 51.27 17.05 51.23 17.05C51.1433 17.05 51.0567 17.0467 50.97 17.04C50.8833 17.0333 50.7933 17.0267 50.7 17.02C50.5667 17.0067 50.43 17 50.29 17C50.15 17 50.0133 17 49.88 17C49.56 17 49.2433 17.01 48.93 17.03C48.8567 17.0367 48.7833 17.04 48.71 17.04C48.6433 17.0467 48.5733 17.05 48.5 17.05C48.4333 17.05 48.39 17.03 48.37 16.99C48.35 16.9433 48.34 16.8967 48.34 16.85C48.34 16.7967 48.36 16.76 48.4 16.74C48.44 16.7133 48.4833 16.7 48.53 16.7C48.59 16.7 48.65 16.7033 48.71 16.71C48.77 16.7167 48.8333 16.72 48.9 16.72C48.9133 16.72 48.93 16.72 48.95 16.72C48.97 16.72 48.9867 16.72 49 16.72C49.0933 16.7133 49.1467 16.66 49.16 16.56C49.18 16.46 49.19 16.3767 49.19 16.31V10.42C49.19 10.3667 49.1833 10.29 49.17 10.19C49.1567 10.0833 49.11 10.0267 49.03 10.02C49.01 10.02 48.99 10.02 48.97 10.02C48.9567 10.02 48.9433 10.02 48.93 10.02C48.8633 10.02 48.7967 10.0233 48.73 10.03C48.6633 10.0367 48.5967 10.04 48.53 10.04C48.4833 10.04 48.4367 10.02 48.39 9.98C48.35 9.94 48.33 9.89667 48.33 9.85C48.33 9.80333 48.35 9.76 48.39 9.72C48.4367 9.68 48.4833 9.66 48.53 9.66C48.6033 9.66 48.6767 9.66333 48.75 9.67C48.83 9.67667 48.9067 9.68333 48.98 9.69C49.1333 9.69667 49.2833 9.70333 49.43 9.71C49.5833 9.71 49.7333 9.71 49.88 9.71C50.1867 9.71 50.49 9.70333 50.79 9.69C51.0967 9.67 51.4033 9.66 51.71 9.66C52.0033 9.66 52.29 9.69333 52.57 9.76C52.8567 9.82 53.1133 9.92 53.34 10.06C53.5667 10.2 53.7467 10.3867 53.88 10.62C54.02 10.8533 54.09 11.14 54.09 11.48ZM58.0202 13.49C58.0202 13.3567 58.0136 13.1967 58.0002 13.01C57.9869 12.8233 57.9536 12.6433 57.9002 12.47C57.8536 12.29 57.7769 12.14 57.6702 12.02C57.5636 11.9 57.4169 11.84 57.2302 11.84C57.0502 11.84 56.8902 11.9 56.7502 12.02C56.6169 12.1333 56.5036 12.28 56.4102 12.46C56.3169 12.6333 56.2436 12.8167 56.1902 13.01C56.1369 13.1967 56.0969 13.3633 56.0702 13.51C56.1836 13.51 56.2936 13.5133 56.4002 13.52C56.5136 13.52 56.6236 13.52 56.7302 13.52C57.1636 13.52 57.5936 13.51 58.0202 13.49ZM59.4602 15.7C59.4602 15.72 59.4536 15.75 59.4402 15.79C59.4336 15.8233 59.4236 15.85 59.4102 15.87C59.3636 15.9767 59.2769 16.1 59.1502 16.24C59.0236 16.3733 58.9102 16.4767 58.8102 16.55C58.3636 16.89 57.8469 17.06 57.2602 17.06C56.7336 17.06 56.2769 16.95 55.8902 16.73C55.5036 16.5033 55.2069 16.19 55.0002 15.79C54.7936 15.39 54.6902 14.93 54.6902 14.41C54.6902 13.89 54.7902 13.42 54.9902 13C55.1969 12.5733 55.4902 12.2367 55.8702 11.99C56.2569 11.7367 56.7202 11.61 57.2602 11.61C57.8802 11.61 58.3769 11.78 58.7502 12.12C59.1236 12.46 59.3102 12.9467 59.3102 13.58C59.3102 13.7533 59.2302 13.84 59.0702 13.84C58.7769 13.84 58.4836 13.8367 58.1902 13.83C57.8969 13.8233 57.6036 13.82 57.3102 13.82C57.0969 13.82 56.8836 13.82 56.6702 13.82C56.4569 13.82 56.2436 13.8233 56.0302 13.83C56.0102 14.03 56.0002 14.2333 56.0002 14.44C56.0002 14.6267 56.0236 14.8467 56.0702 15.1C56.1236 15.3533 56.2002 15.6 56.3002 15.84C56.4069 16.08 56.5436 16.28 56.7102 16.44C56.8769 16.5933 57.0802 16.67 57.3202 16.67C57.6202 16.67 57.8702 16.6267 58.0702 16.54C58.2769 16.4533 58.4602 16.33 58.6202 16.17C58.7802 16.01 58.9436 15.82 59.1102 15.6C59.1302 15.5733 59.1502 15.5533 59.1702 15.54C59.1969 15.52 59.2269 15.51 59.2602 15.51C59.3069 15.51 59.3502 15.53 59.3902 15.57C59.4369 15.6033 59.4602 15.6467 59.4602 15.7ZM68.7395 16.88C68.7395 16.9867 68.6828 17.04 68.5695 17.04C68.3761 17.04 68.1828 17.03 67.9895 17.01C67.7961 16.9967 67.6028 16.99 67.4095 16.99C67.2161 16.99 67.0195 16.9967 66.8195 17.01C66.6261 17.03 66.4295 17.04 66.2295 17.04C66.1895 17.04 66.1561 17.0233 66.1295 16.99C66.1095 16.95 66.0995 16.9133 66.0995 16.88C66.0995 16.78 66.1595 16.73 66.2795 16.73C66.3328 16.73 66.3861 16.7333 66.4395 16.74C66.4995 16.74 66.5561 16.74 66.6095 16.74C66.6895 16.74 66.7361 16.7167 66.7495 16.67C66.7628 16.6167 66.7695 16.5567 66.7695 16.49V13.52C66.7695 13.34 66.7628 13.1433 66.7495 12.93C66.7428 12.71 66.7028 12.5167 66.6295 12.35C66.5695 12.2033 66.4928 12.1033 66.3995 12.05C66.3128 11.99 66.1928 11.96 66.0395 11.96C65.8528 11.96 65.6661 12.0333 65.4795 12.18C65.2928 12.3267 65.1428 12.4667 65.0295 12.6C65.0561 12.7333 65.0695 12.87 65.0695 13.01C65.0761 13.1433 65.0795 13.2767 65.0795 13.41C65.0795 13.9233 65.0795 14.4367 65.0795 14.95C65.0795 15.4633 65.0795 15.9767 65.0795 16.49C65.0795 16.57 65.0928 16.6333 65.1195 16.68C65.1528 16.7267 65.2128 16.75 65.2995 16.75C65.3461 16.75 65.3895 16.7467 65.4295 16.74C65.4761 16.7333 65.5228 16.73 65.5695 16.73C65.6695 16.73 65.7195 16.78 65.7195 16.88C65.7195 16.9867 65.6628 17.04 65.5495 17.04C65.3628 17.04 65.1728 17.03 64.9795 17.01C64.7928 16.9967 64.6028 16.99 64.4095 16.99C64.2161 16.99 64.0228 16.9967 63.8295 17.01C63.6361 17.03 63.4428 17.04 63.2495 17.04C63.2028 17.04 63.1695 17.0233 63.1495 16.99C63.1295 16.95 63.1195 16.9133 63.1195 16.88C63.1195 16.8067 63.1495 16.7633 63.2095 16.75C63.2695 16.73 63.3361 16.7233 63.4095 16.73C63.4895 16.7367 63.5495 16.74 63.5895 16.74C63.6828 16.74 63.7395 16.72 63.7595 16.68C63.7795 16.6333 63.7895 16.57 63.7895 16.49C63.7895 15.9967 63.7861 15.5033 63.7795 15.01C63.7795 14.51 63.7795 14.0133 63.7795 13.52C63.7795 13.34 63.7728 13.1433 63.7595 12.93C63.7528 12.71 63.7128 12.5167 63.6395 12.35C63.5728 12.1967 63.4928 12.0967 63.3995 12.05C63.3061 12.0033 63.1795 11.98 63.0195 11.98C62.9328 11.98 62.8261 12.0233 62.6995 12.11C62.5728 12.19 62.4528 12.2833 62.3395 12.39C62.2261 12.4967 62.1395 12.5833 62.0795 12.65C62.0795 13.29 62.0795 13.93 62.0795 14.57C62.0795 15.21 62.0795 15.85 62.0795 16.49C62.0795 16.57 62.0928 16.6333 62.1195 16.68C62.1528 16.7267 62.2128 16.75 62.2995 16.75C62.3461 16.75 62.3928 16.7467 62.4395 16.74C62.4861 16.7333 62.5328 16.73 62.5795 16.73C62.6728 16.73 62.7195 16.78 62.7195 16.88C62.7195 16.9867 62.6661 17.04 62.5595 17.04C62.3661 17.04 62.1728 17.0333 61.9795 17.02C61.7928 17.0067 61.6028 17 61.4095 17C61.2095 17 61.0095 17.0067 60.8095 17.02C60.6161 17.0333 60.4195 17.04 60.2195 17.04C60.1728 17.04 60.1361 17.0233 60.1095 16.99C60.0895 16.95 60.0795 16.9133 60.0795 16.88C60.0795 16.78 60.1361 16.73 60.2495 16.73C60.3028 16.73 60.3561 16.7333 60.4095 16.74C60.4695 16.74 60.5295 16.74 60.5895 16.74C60.6828 16.74 60.7361 16.6933 60.7495 16.6C60.7695 16.5067 60.7795 16.4267 60.7795 16.36C60.7795 15.7267 60.7795 15.0933 60.7795 14.46C60.7795 13.8267 60.7795 13.1933 60.7795 12.56C60.7795 12.4867 60.7695 12.4067 60.7495 12.32C60.7295 12.2333 60.6661 12.19 60.5595 12.19C60.4861 12.19 60.4095 12.1967 60.3295 12.21C60.2561 12.2167 60.1828 12.22 60.1095 12.22C60.0695 12.22 60.0295 12.21 59.9895 12.19C59.9561 12.1633 59.9395 12.1267 59.9395 12.08C59.9395 12.0333 59.9528 12 59.9795 11.98C60.0128 11.96 60.0428 11.9467 60.0695 11.94C60.1561 11.9133 60.2461 11.8967 60.3395 11.89C60.4328 11.8833 60.5228 11.8733 60.6095 11.86C60.6895 11.84 60.8028 11.81 60.9495 11.77C61.1028 11.73 61.2528 11.6933 61.3995 11.66C61.5461 11.62 61.6461 11.6 61.6995 11.6C61.7795 11.6 61.8361 11.6367 61.8695 11.71C61.9161 11.7833 61.9495 11.87 61.9695 11.97C61.9895 12.0633 62.0128 12.1533 62.0395 12.24C62.2795 12.04 62.5195 11.89 62.7595 11.79C62.9995 11.6833 63.2761 11.63 63.5895 11.63C63.8428 11.63 64.0895 11.68 64.3295 11.78C64.5761 11.88 64.7628 12.0433 64.8895 12.27C65.1228 12.0633 65.3661 11.9 65.6195 11.78C65.8728 11.66 66.1528 11.6 66.4595 11.6C66.9195 11.6 67.2628 11.6633 67.4895 11.79C67.7161 11.9167 67.8661 12.1133 67.9395 12.38C68.0195 12.64 68.0595 12.9833 68.0595 13.41C68.0595 13.9233 68.0595 14.4367 68.0595 14.95C68.0595 15.4633 68.0595 15.9767 68.0595 16.49C68.0595 16.5967 68.0861 16.6667 68.1395 16.7C68.1995 16.7333 68.2695 16.7467 68.3495 16.74C68.4361 16.7333 68.5161 16.73 68.5895 16.73C68.6895 16.73 68.7395 16.78 68.7395 16.88ZM72.0287 16.88C72.0287 16.9867 71.9753 17.04 71.8687 17.04C71.6753 17.04 71.4787 17.03 71.2787 17.01C71.0787 16.9967 70.8787 16.99 70.6787 16.99C70.4787 16.99 70.2753 16.9967 70.0687 17.01C69.8687 17.03 69.6687 17.04 69.4687 17.04C69.422 17.04 69.3887 17.0233 69.3687 16.99C69.3487 16.95 69.3387 16.9133 69.3387 16.88C69.3387 16.7733 69.3887 16.72 69.4887 16.72C69.5553 16.72 69.6187 16.7233 69.6787 16.73C69.7387 16.7367 69.7987 16.74 69.8587 16.74C69.9387 16.74 69.9887 16.7133 70.0087 16.66C70.0353 16.6067 70.0487 16.5467 70.0487 16.48V12.51C70.0487 12.4433 70.042 12.37 70.0287 12.29C70.0153 12.2033 69.962 12.16 69.8687 12.16C69.782 12.16 69.692 12.1667 69.5987 12.18C69.5053 12.1933 69.412 12.2 69.3187 12.2C69.2787 12.2 69.2387 12.19 69.1987 12.17C69.1653 12.15 69.1487 12.1167 69.1487 12.07C69.1487 11.9833 69.192 11.9267 69.2787 11.9C69.352 11.8867 69.4287 11.8767 69.5087 11.87C69.5953 11.8567 69.6753 11.8467 69.7487 11.84C69.982 11.8067 70.2087 11.7667 70.4287 11.72C70.6553 11.6667 70.882 11.6133 71.1087 11.56C71.1287 11.56 71.1487 11.56 71.1687 11.56C71.1887 11.5533 71.2053 11.55 71.2187 11.55C71.3187 11.55 71.3687 11.59 71.3687 11.67C71.3687 12.47 71.3653 13.2733 71.3587 14.08C71.352 14.88 71.3487 15.68 71.3487 16.48C71.3487 16.6 71.3753 16.6767 71.4287 16.71C71.482 16.7367 71.5487 16.7467 71.6287 16.74C71.7153 16.7333 71.802 16.73 71.8887 16.73C71.982 16.73 72.0287 16.78 72.0287 16.88ZM71.3987 10.01C71.3987 10.2167 71.322 10.3967 71.1687 10.55C71.022 10.7033 70.842 10.78 70.6287 10.78C70.422 10.78 70.242 10.7033 70.0887 10.55C69.9353 10.3967 69.8587 10.2167 69.8587 10.01C69.8587 9.79667 69.9353 9.61667 70.0887 9.47C70.242 9.31667 70.422 9.24 70.6287 9.24C70.842 9.24 71.022 9.31667 71.1687 9.47C71.322 9.61667 71.3987 9.79667 71.3987 10.01ZM75.5162 16.87C75.5162 16.9767 75.4628 17.03 75.3562 17.03C75.1495 17.03 74.9462 17.02 74.7462 17C74.5462 16.9867 74.3428 16.98 74.1362 16.98C73.9228 16.98 73.7062 16.9867 73.4862 17C73.2728 17.02 73.0595 17.03 72.8462 17.03C72.7995 17.03 72.7662 17.0133 72.7462 16.98C72.7262 16.94 72.7162 16.9 72.7162 16.86C72.7162 16.7867 72.7495 16.74 72.8162 16.72C72.8895 16.7 72.9695 16.6933 73.0562 16.7C73.1495 16.7067 73.2195 16.71 73.2662 16.71C73.4128 16.71 73.4862 16.63 73.4862 16.47V15.66C73.4862 14.78 73.4862 13.9033 73.4862 13.03C73.4862 12.15 73.4862 11.27 73.4862 10.39C73.4862 10.3167 73.4795 10.2267 73.4662 10.12C73.4528 10.0067 73.3895 9.95 73.2762 9.95C73.1962 9.95 73.1162 9.96333 73.0362 9.99C72.9628 10.01 72.8862 10.02 72.8062 10.02C72.7062 10.02 72.6562 9.96667 72.6562 9.86C72.6562 9.78667 72.6995 9.73333 72.7862 9.7C72.8728 9.67333 72.9628 9.65333 73.0562 9.64C73.1562 9.62667 73.2495 9.61 73.3362 9.59C73.5362 9.54333 73.7328 9.49667 73.9262 9.45C74.1262 9.39667 74.3228 9.34667 74.5162 9.3C74.5362 9.29333 74.5562 9.29 74.5762 9.29C74.5962 9.28333 74.6162 9.28 74.6362 9.28C74.6762 9.28 74.7128 9.29 74.7462 9.31C74.7862 9.32333 74.8062 9.35667 74.8062 9.41C74.8062 10.5833 74.8028 11.76 74.7962 12.94C74.7895 14.12 74.7862 15.2967 74.7862 16.47C74.7862 16.5833 74.8195 16.6567 74.8862 16.69C74.9528 16.7233 75.0328 16.7367 75.1262 16.73C75.2195 16.7167 75.3028 16.71 75.3762 16.71C75.4695 16.71 75.5162 16.7633 75.5162 16.87ZM78.9232 16.88C78.9232 16.9867 78.8699 17.04 78.7632 17.04C78.5699 17.04 78.3732 17.03 78.1732 17.01C77.9732 16.9967 77.7732 16.99 77.5732 16.99C77.3732 16.99 77.1699 16.9967 76.9632 17.01C76.7632 17.03 76.5632 17.04 76.3632 17.04C76.3165 17.04 76.2832 17.0233 76.2632 16.99C76.2432 16.95 76.2332 16.9133 76.2332 16.88C76.2332 16.7733 76.2832 16.72 76.3832 16.72C76.4499 16.72 76.5132 16.7233 76.5732 16.73C76.6332 16.7367 76.6932 16.74 76.7532 16.74C76.8332 16.74 76.8832 16.7133 76.9032 16.66C76.9299 16.6067 76.9432 16.5467 76.9432 16.48V12.51C76.9432 12.4433 76.9365 12.37 76.9232 12.29C76.9099 12.2033 76.8565 12.16 76.7632 12.16C76.6765 12.16 76.5865 12.1667 76.4932 12.18C76.3999 12.1933 76.3065 12.2 76.2132 12.2C76.1732 12.2 76.1332 12.19 76.0932 12.17C76.0599 12.15 76.0432 12.1167 76.0432 12.07C76.0432 11.9833 76.0865 11.9267 76.1732 11.9C76.2465 11.8867 76.3232 11.8767 76.4032 11.87C76.4899 11.8567 76.5699 11.8467 76.6432 11.84C76.8765 11.8067 77.1032 11.7667 77.3232 11.72C77.5499 11.6667 77.7765 11.6133 78.0032 11.56C78.0232 11.56 78.0432 11.56 78.0632 11.56C78.0832 11.5533 78.0999 11.55 78.1132 11.55C78.2132 11.55 78.2632 11.59 78.2632 11.67C78.2632 12.47 78.2599 13.2733 78.2532 14.08C78.2465 14.88 78.2432 15.68 78.2432 16.48C78.2432 16.6 78.2699 16.6767 78.3232 16.71C78.3765 16.7367 78.4432 16.7467 78.5232 16.74C78.6099 16.7333 78.6965 16.73 78.7832 16.73C78.8765 16.73 78.9232 16.78 78.9232 16.88ZM78.2932 10.01C78.2932 10.2167 78.2165 10.3967 78.0632 10.55C77.9165 10.7033 77.7365 10.78 77.5232 10.78C77.3165 10.78 77.1365 10.7033 76.9832 10.55C76.8299 10.3967 76.7532 10.2167 76.7532 10.01C76.7532 9.79667 76.8299 9.61667 76.9832 9.47C77.1365 9.31667 77.3165 9.24 77.5232 9.24C77.7365 9.24 77.9165 9.31667 78.0632 9.47C78.2165 9.61667 78.2932 9.79667 78.2932 10.01ZM85.3707 16.86C85.3707 16.98 85.314 17.04 85.2007 17.04C85.1074 17.04 85.0107 17.0333 84.9107 17.02C84.8174 17.0133 84.724 17.0067 84.6307 17C84.4974 16.9933 84.3607 16.9933 84.2207 17C84.0874 17 83.954 17 83.8207 17C83.6607 17 83.5007 17.0067 83.3407 17.02C83.1874 17.04 83.034 17.05 82.8807 17.05C82.8407 17.05 82.8007 17.0333 82.7607 17C82.7274 16.96 82.7107 16.9233 82.7107 16.89C82.7107 16.7767 82.7674 16.72 82.8807 16.72C82.9474 16.72 83.0107 16.7233 83.0707 16.73C83.1307 16.7367 83.194 16.74 83.2607 16.74C83.3607 16.74 83.4107 16.6867 83.4107 16.58C83.4107 16.0667 83.4107 15.5567 83.4107 15.05C83.4174 14.5367 83.4207 14.0267 83.4207 13.52C83.4207 13.34 83.414 13.1433 83.4007 12.93C83.3874 12.71 83.3474 12.5167 83.2807 12.35C83.2207 12.1967 83.144 12.0933 83.0507 12.04C82.9574 11.9867 82.8307 11.96 82.6707 11.96C82.524 11.96 82.3707 12.0133 82.2107 12.12C82.0574 12.2267 81.9207 12.3567 81.8007 12.51C81.6807 12.6567 81.5907 12.7933 81.5307 12.92V16.62C81.5307 16.6933 81.5774 16.73 81.6707 16.73C81.7374 16.73 81.8007 16.7267 81.8607 16.72C81.9207 16.7067 81.984 16.7 82.0507 16.7C82.084 16.7 82.1174 16.72 82.1507 16.76C82.1907 16.7933 82.2107 16.8267 82.2107 16.86C82.2107 16.98 82.154 17.04 82.0407 17.04C81.9474 17.04 81.8507 17.0333 81.7507 17.02C81.6574 17.0133 81.564 17.01 81.4707 17.01C81.404 17.01 81.3374 17.01 81.2707 17.01C81.204 17.01 81.134 17.01 81.0607 17.01H80.5307C80.404 17.01 80.2774 17.0167 80.1507 17.03C80.024 17.0433 79.8974 17.05 79.7707 17.05C79.664 17.05 79.6107 16.99 79.6107 16.87C79.6107 16.7633 79.6674 16.71 79.7807 16.71C79.8474 16.71 79.9107 16.7133 79.9707 16.72C80.0307 16.7267 80.094 16.73 80.1607 16.73C80.2407 16.73 80.2807 16.6933 80.2807 16.62V10.25C80.2807 10.1833 80.2707 10.1033 80.2507 10.01C80.2374 9.91 80.184 9.86 80.0907 9.86C80.004 9.86 79.914 9.86667 79.8207 9.88C79.734 9.89333 79.6474 9.9 79.5607 9.9C79.5274 9.9 79.4974 9.88333 79.4707 9.85C79.444 9.81667 79.4307 9.78333 79.4307 9.75C79.4307 9.68333 79.474 9.64333 79.5607 9.63C79.834 9.57 80.1074 9.52333 80.3807 9.49C80.6607 9.45 80.934 9.39 81.2007 9.31C81.254 9.29 81.3074 9.28 81.3607 9.28C81.454 9.28 81.5007 9.32333 81.5007 9.41V12.31C81.694 12.13 81.9207 11.97 82.1807 11.83C82.4407 11.69 82.704 11.62 82.9707 11.62C83.424 11.62 83.774 11.6767 84.0207 11.79C84.274 11.9033 84.4507 12.09 84.5507 12.35C84.6574 12.61 84.7107 12.9633 84.7107 13.41V16.58C84.7107 16.68 84.7574 16.73 84.8507 16.73C84.9107 16.73 84.9707 16.7267 85.0307 16.72C85.0907 16.7067 85.1507 16.7 85.2107 16.7C85.2574 16.7 85.294 16.7167 85.3207 16.75C85.354 16.7833 85.3707 16.82 85.3707 16.86ZM88.9181 15.94C88.8981 15.6267 88.8848 15.3133 88.8781 15C88.8715 14.68 88.8715 14.36 88.8781 14.04C88.6048 14.0867 88.3381 14.1733 88.0781 14.3C87.8248 14.42 87.6148 14.5833 87.4481 14.79C87.2815 14.9967 87.1981 15.26 87.1981 15.58C87.1981 15.7133 87.2148 15.8567 87.2481 16.01C87.2881 16.1633 87.3548 16.2933 87.4481 16.4C87.5481 16.5 87.6815 16.55 87.8481 16.55C87.9681 16.55 88.0948 16.5167 88.2281 16.45C88.3615 16.3767 88.4881 16.2933 88.6081 16.2C88.7348 16.1067 88.8381 16.02 88.9181 15.94ZM90.9781 16.53C90.9781 16.5567 90.9648 16.5867 90.9381 16.62C90.9181 16.6533 90.8981 16.68 90.8781 16.7C90.6715 16.94 90.4048 17.06 90.0781 17.06C89.7915 17.06 89.5615 16.9967 89.3881 16.87C89.2148 16.7433 89.0815 16.5467 88.9881 16.28C88.7748 16.5067 88.5448 16.6867 88.2981 16.82C88.0581 16.9533 87.7748 17.02 87.4481 17.02C87.2148 17.02 86.9781 16.97 86.7381 16.87C86.5048 16.7633 86.3081 16.6133 86.1481 16.42C85.9948 16.2267 85.9181 16.0033 85.9181 15.75C85.9181 15.4967 85.9815 15.2733 86.1081 15.08C86.2415 14.88 86.4081 14.71 86.6081 14.57C86.8081 14.4233 87.0115 14.3033 87.2181 14.21C87.4848 14.0967 87.7581 14.01 88.0381 13.95C88.3181 13.8833 88.5981 13.8167 88.8781 13.75V13.71C88.8781 13.59 88.8748 13.43 88.8681 13.23C88.8681 13.0233 88.8481 12.82 88.8081 12.62C88.7681 12.4133 88.7015 12.24 88.6081 12.1C88.5148 11.9533 88.3781 11.88 88.1981 11.88C87.9915 11.88 87.8048 11.94 87.6381 12.06C87.4781 12.18 87.3648 12.34 87.2981 12.54C87.2848 12.6 87.2748 12.66 87.2681 12.72C87.2615 12.7733 87.2515 12.83 87.2381 12.89C87.2248 12.9967 87.1615 13.07 87.0481 13.11C86.9415 13.1433 86.8415 13.16 86.7481 13.16C86.6348 13.16 86.5248 13.1367 86.4181 13.09C86.3115 13.0367 86.2581 12.94 86.2581 12.8C86.2581 12.7467 86.2648 12.7 86.2781 12.66C86.2981 12.6133 86.3181 12.5667 86.3381 12.52C86.4448 12.2667 86.6048 12.08 86.8181 11.96C87.0315 11.84 87.2648 11.76 87.5181 11.72C87.7781 11.68 88.0248 11.66 88.2581 11.66C88.8048 11.66 89.2548 11.8067 89.6081 12.1C89.9615 12.3933 90.1381 12.8267 90.1381 13.4V14.91C90.1315 15.0967 90.1281 15.29 90.1281 15.49C90.1348 15.6833 90.1448 15.8767 90.1581 16.07C90.1715 16.1833 90.1981 16.2933 90.2381 16.4C90.2781 16.5 90.3681 16.55 90.5081 16.55C90.6015 16.55 90.6781 16.53 90.7381 16.49C90.8048 16.45 90.8648 16.43 90.9181 16.43C90.9448 16.43 90.9615 16.4433 90.9681 16.47C90.9748 16.4967 90.9781 16.5167 90.9781 16.53ZM97.1076 16.86C97.1076 16.9667 97.0542 17.02 96.9476 17.02C96.7542 17.02 96.5576 17.0133 96.3576 17C96.1642 16.9933 95.9709 16.99 95.7776 16.99C95.5909 16.99 95.4009 16.9933 95.2076 17C95.0142 17.0133 94.8209 17.02 94.6276 17.02C94.5809 17.02 94.5476 17.0033 94.5276 16.97C94.5076 16.93 94.4976 16.89 94.4976 16.85C94.4976 16.75 94.5509 16.7 94.6576 16.7C94.7176 16.7 94.7776 16.7033 94.8376 16.71C94.8976 16.71 94.9576 16.71 95.0176 16.71C95.1176 16.71 95.1676 16.6667 95.1676 16.58C95.1676 16.02 95.1676 15.46 95.1676 14.9C95.1742 14.34 95.1776 13.78 95.1776 13.22C95.1776 13.04 95.1609 12.8533 95.1276 12.66C95.1009 12.4667 95.0342 12.3033 94.9276 12.17C94.8276 12.0367 94.6609 11.97 94.4276 11.97C94.2809 11.97 94.1276 12.0233 93.9676 12.13C93.8142 12.2367 93.6742 12.3633 93.5476 12.51C93.4276 12.6567 93.3409 12.7933 93.2876 12.92V16.46C93.2876 16.52 93.2942 16.5767 93.3076 16.63C93.3276 16.6833 93.3742 16.71 93.4476 16.71C93.5009 16.71 93.5542 16.71 93.6076 16.71C93.6676 16.7033 93.7242 16.7 93.7776 16.7C93.8109 16.7 93.8442 16.7133 93.8776 16.74C93.9109 16.7667 93.9276 16.7967 93.9276 16.83C93.9276 16.9567 93.8742 17.02 93.7676 17.02C93.5809 17.02 93.3942 17.0133 93.2076 17C93.0276 16.98 92.8409 16.97 92.6476 16.97C92.4476 16.97 92.2442 16.98 92.0376 17C91.8376 17.0133 91.6342 17.02 91.4276 17.02C91.3809 17.02 91.3476 17.0033 91.3276 16.97C91.3076 16.93 91.2976 16.89 91.2976 16.85C91.2976 16.75 91.3509 16.7 91.4576 16.7C91.5176 16.7 91.5776 16.7033 91.6376 16.71C91.6976 16.71 91.7609 16.71 91.8276 16.71C91.9209 16.71 91.9742 16.69 91.9876 16.65C92.0009 16.61 92.0076 16.5467 92.0076 16.46V15.01C92.0076 14.6033 92.0076 14.1967 92.0076 13.79C92.0076 13.3833 92.0076 12.9767 92.0076 12.57C92.0076 12.4967 91.9976 12.4167 91.9776 12.33C91.9576 12.2367 91.8976 12.19 91.7976 12.19C91.7309 12.19 91.6642 12.1933 91.5976 12.2C91.5376 12.2067 91.4742 12.21 91.4076 12.21C91.3676 12.21 91.3209 12.2033 91.2676 12.19C91.2209 12.17 91.1976 12.1333 91.1976 12.08C91.1976 12.04 91.2109 12.01 91.2376 11.99C91.2642 11.97 91.2942 11.9567 91.3276 11.95C91.3942 11.93 91.4642 11.9167 91.5376 11.91C91.6109 11.9033 91.6809 11.8933 91.7476 11.88C91.9209 11.8467 92.0909 11.81 92.2576 11.77C92.4309 11.7233 92.6009 11.6767 92.7676 11.63C92.7942 11.6167 92.8209 11.6067 92.8476 11.6C92.8742 11.5867 92.9009 11.58 92.9276 11.58C92.9809 11.58 93.0276 11.63 93.0676 11.73C93.1142 11.83 93.1509 11.9367 93.1776 12.05C93.2109 12.1633 93.2309 12.2433 93.2376 12.29C93.4309 12.1167 93.6642 11.9633 93.9376 11.83C94.2109 11.69 94.4809 11.62 94.7476 11.62C95.1942 11.62 95.5409 11.6767 95.7876 11.79C96.0409 11.9033 96.2209 12.0933 96.3276 12.36C96.4342 12.62 96.4876 12.97 96.4876 13.41C96.4876 13.93 96.4842 14.45 96.4776 14.97C96.4709 15.49 96.4676 16.01 96.4676 16.53C96.4676 16.5967 96.4876 16.6467 96.5276 16.68C96.5742 16.7067 96.6309 16.72 96.6976 16.72C96.7442 16.72 96.7876 16.7167 96.8276 16.71C96.8742 16.7033 96.9209 16.7 96.9676 16.7C97.0609 16.7 97.1076 16.7533 97.1076 16.86ZM54.53 28.7C54.53 28.8067 54.5233 28.9133 54.51 29.02C54.4967 29.1267 54.4833 29.2367 54.47 29.35C54.4433 29.5833 54.4133 29.8167 54.38 30.05C54.3467 30.2833 54.32 30.5167 54.3 30.75C54.3 30.8167 54.2867 30.8733 54.26 30.92C54.2267 30.9667 54.1767 30.9933 54.11 31C54.0433 31.0133 53.9833 31.02 53.93 31.02C53.85 31.02 53.77 31.0167 53.69 31.01C53.61 31.01 53.5267 31.01 53.44 31.01C53.02 31.0033 52.6 31 52.18 31C51.76 31 51.34 31 50.92 31H49.78C49.6333 31 49.4867 31 49.34 31C49.2 31 49.0567 31.0033 48.91 31.01C48.8367 31.0167 48.7633 31.02 48.69 31.02C48.6167 31.0267 48.5433 31.03 48.47 31.03C48.41 31.03 48.3567 31.0133 48.31 30.98C48.27 30.9467 48.25 30.9 48.25 30.84C48.25 30.7733 48.27 30.7233 48.31 30.69C48.3567 30.6567 48.4067 30.64 48.46 30.64C48.5133 30.64 48.5667 30.6433 48.62 30.65C48.68 30.6567 48.7367 30.66 48.79 30.66C48.8967 30.66 48.98 30.6467 49.04 30.62C49.1 30.5867 49.13 30.51 49.13 30.39C49.13 29.3567 49.13 28.3233 49.13 27.29C49.13 26.25 49.1267 25.2167 49.12 24.19C49.12 24.11 49.1033 24.06 49.07 24.04C49.0433 24.0133 48.9933 24 48.92 24C48.8467 24 48.77 24.0033 48.69 24.01C48.6167 24.0167 48.54 24.02 48.46 24.02C48.4133 24.02 48.37 24.0033 48.33 23.97C48.29 23.9367 48.27 23.8933 48.27 23.84C48.27 23.7133 48.3367 23.65 48.47 23.65C48.5433 23.65 48.62 23.6533 48.7 23.66C48.78 23.6667 48.86 23.6733 48.94 23.68C49.1 23.6867 49.2567 23.6933 49.41 23.7C49.57 23.7 49.73 23.7 49.89 23.7C50.0233 23.7 50.1533 23.7 50.28 23.7C50.4133 23.7 50.5433 23.6967 50.67 23.69C50.7633 23.6833 50.8533 23.6767 50.94 23.67C51.0267 23.6567 51.1133 23.65 51.2 23.65C51.3067 23.65 51.36 23.7067 51.36 23.82C51.36 23.8667 51.3467 23.9133 51.32 23.96C51.2933 24 51.2533 24.02 51.2 24.02C51.1133 24.02 51.0267 24.0167 50.94 24.01C50.86 24.0033 50.7733 24 50.68 24C50.6067 24 50.56 24.02 50.54 24.06C50.5267 24.0933 50.52 24.1433 50.52 24.21C50.52 24.4567 50.5167 24.7 50.51 24.94C50.51 25.18 50.51 25.4233 50.51 25.67C50.51 26.4433 50.51 27.22 50.51 28C50.5167 28.78 50.52 29.5567 50.52 30.33C50.52 30.3967 50.5367 30.46 50.57 30.52C50.6033 30.58 50.6533 30.62 50.72 30.64C50.8067 30.66 50.8967 30.67 50.99 30.67C51.0833 30.67 51.1733 30.67 51.26 30.67C51.76 30.67 52.1933 30.62 52.56 30.52C52.9267 30.42 53.2367 30.2367 53.49 29.97C53.75 29.6967 53.9633 29.3033 54.13 28.79C54.15 28.73 54.1767 28.6767 54.21 28.63C54.2433 28.5767 54.2933 28.55 54.36 28.55C54.4 28.55 54.4367 28.5633 54.47 28.59C54.51 28.6167 54.53 28.6533 54.53 28.7ZM58.0392 29.94C58.0192 29.6267 58.0059 29.3133 57.9992 29C57.9926 28.68 57.9926 28.36 57.9992 28.04C57.7259 28.0867 57.4592 28.1733 57.1992 28.3C56.9459 28.42 56.7359 28.5833 56.5692 28.79C56.4026 28.9967 56.3192 29.26 56.3192 29.58C56.3192 29.7133 56.3359 29.8567 56.3692 30.01C56.4092 30.1633 56.4759 30.2933 56.5692 30.4C56.6692 30.5 56.8026 30.55 56.9692 30.55C57.0892 30.55 57.2159 30.5167 57.3492 30.45C57.4826 30.3767 57.6092 30.2933 57.7292 30.2C57.8559 30.1067 57.9592 30.02 58.0392 29.94ZM60.0992 30.53C60.0992 30.5567 60.0859 30.5867 60.0592 30.62C60.0392 30.6533 60.0192 30.68 59.9992 30.7C59.7926 30.94 59.5259 31.06 59.1992 31.06C58.9126 31.06 58.6826 30.9967 58.5092 30.87C58.3359 30.7433 58.2026 30.5467 58.1092 30.28C57.8959 30.5067 57.6659 30.6867 57.4192 30.82C57.1792 30.9533 56.8959 31.02 56.5692 31.02C56.3359 31.02 56.0992 30.97 55.8592 30.87C55.6259 30.7633 55.4292 30.6133 55.2692 30.42C55.1159 30.2267 55.0392 30.0033 55.0392 29.75C55.0392 29.4967 55.1026 29.2733 55.2292 29.08C55.3626 28.88 55.5292 28.71 55.7292 28.57C55.9292 28.4233 56.1326 28.3033 56.3392 28.21C56.6059 28.0967 56.8792 28.01 57.1592 27.95C57.4392 27.8833 57.7192 27.8167 57.9992 27.75V27.71C57.9992 27.59 57.9959 27.43 57.9892 27.23C57.9892 27.0233 57.9692 26.82 57.9292 26.62C57.8892 26.4133 57.8226 26.24 57.7292 26.1C57.6359 25.9533 57.4992 25.88 57.3192 25.88C57.1126 25.88 56.9259 25.94 56.7592 26.06C56.5992 26.18 56.4859 26.34 56.4192 26.54C56.4059 26.6 56.3959 26.66 56.3892 26.72C56.3826 26.7733 56.3726 26.83 56.3592 26.89C56.3459 26.9967 56.2826 27.07 56.1692 27.11C56.0626 27.1433 55.9626 27.16 55.8692 27.16C55.7559 27.16 55.6459 27.1367 55.5392 27.09C55.4326 27.0367 55.3792 26.94 55.3792 26.8C55.3792 26.7467 55.3859 26.7 55.3992 26.66C55.4192 26.6133 55.4392 26.5667 55.4592 26.52C55.5659 26.2667 55.7259 26.08 55.9392 25.96C56.1526 25.84 56.3859 25.76 56.6392 25.72C56.8992 25.68 57.1459 25.66 57.3792 25.66C57.9259 25.66 58.3759 25.8067 58.7292 26.1C59.0826 26.3933 59.2592 26.8267 59.2592 27.4V28.91C59.2526 29.0967 59.2492 29.29 59.2492 29.49C59.2559 29.6833 59.2659 29.8767 59.2792 30.07C59.2926 30.1833 59.3192 30.2933 59.3592 30.4C59.3992 30.5 59.4892 30.55 59.6292 30.55C59.7226 30.55 59.7992 30.53 59.8592 30.49C59.9259 30.45 59.9859 30.43 60.0392 30.43C60.0659 30.43 60.0826 30.4433 60.0892 30.47C60.0959 30.4967 60.0992 30.5167 60.0992 30.53ZM64.4887 28.34C64.4887 28.2 64.4853 28.0333 64.4787 27.84C64.472 27.64 64.452 27.4367 64.4187 27.23C64.392 27.0167 64.342 26.82 64.2687 26.64C64.202 26.4533 64.1053 26.3033 63.9787 26.19C63.852 26.0767 63.6887 26.02 63.4887 26.02C63.222 26.02 63.002 26.0967 62.8287 26.25C62.662 26.4033 62.5253 26.5967 62.4187 26.83V29.44C62.4187 29.6067 62.4487 29.79 62.5087 29.99C62.5753 30.1833 62.6753 30.35 62.8087 30.49C62.942 30.6233 63.1087 30.69 63.3087 30.69C63.602 30.69 63.8287 30.61 63.9887 30.45C64.1553 30.2833 64.272 30.0767 64.3387 29.83C64.412 29.5833 64.4553 29.3267 64.4687 29.06C64.482 28.7867 64.4887 28.5467 64.4887 28.34ZM65.8587 28.2C65.8587 28.74 65.7687 29.22 65.5887 29.64C65.4087 30.0533 65.132 30.38 64.7587 30.62C64.3853 30.8533 63.912 30.97 63.3387 30.97C63.192 30.97 63.0287 30.9367 62.8487 30.87C62.6753 30.7967 62.5287 30.7233 62.4087 30.65C62.4087 30.7967 62.4053 30.9433 62.3987 31.09C62.3987 31.2433 62.402 31.3967 62.4087 31.55V32.36C62.4087 32.42 62.4187 32.48 62.4387 32.54C62.4653 32.6 62.5153 32.63 62.5887 32.63C62.642 32.63 62.6953 32.6267 62.7487 32.62C62.8087 32.62 62.8653 32.62 62.9187 32.62C63.012 32.62 63.0587 32.67 63.0587 32.77C63.0587 32.8767 63.0087 32.93 62.9087 32.93C62.722 32.93 62.5353 32.9233 62.3487 32.91C62.162 32.8967 61.972 32.89 61.7787 32.89C61.5853 32.89 61.3887 32.8967 61.1887 32.91C60.9887 32.9233 60.792 32.93 60.5987 32.93C60.552 32.93 60.5187 32.91 60.4987 32.87C60.4787 32.8367 60.4687 32.8033 60.4687 32.77C60.4687 32.67 60.5187 32.62 60.6187 32.62C60.672 32.62 60.7253 32.62 60.7787 32.62C60.832 32.6267 60.882 32.63 60.9287 32.63C61.002 32.63 61.0553 32.6033 61.0887 32.55C61.122 32.5033 61.1387 32.4467 61.1387 32.38C61.1387 31.4067 61.1387 30.4333 61.1387 29.46C61.1453 28.48 61.1487 27.5033 61.1487 26.53C61.1487 26.4567 61.1387 26.3767 61.1187 26.29C61.0987 26.2033 61.0387 26.16 60.9387 26.16C60.872 26.16 60.8053 26.1633 60.7387 26.17C60.6787 26.1767 60.6153 26.18 60.5487 26.18C60.5087 26.18 60.462 26.1733 60.4087 26.16C60.362 26.14 60.3387 26.1033 60.3387 26.05C60.3387 26.01 60.352 25.98 60.3787 25.96C60.4053 25.94 60.4353 25.9267 60.4687 25.92C60.542 25.8933 60.6187 25.8767 60.6987 25.87C60.7787 25.8633 60.8553 25.8533 60.9287 25.84C61.2687 25.78 61.5953 25.7 61.9087 25.6C61.9353 25.5867 61.962 25.5767 61.9887 25.57C62.0153 25.5567 62.042 25.55 62.0687 25.55C62.1153 25.55 62.1553 25.59 62.1887 25.67C62.2287 25.75 62.2587 25.8367 62.2787 25.93C62.3053 26.0233 62.3253 26.09 62.3387 26.13C62.432 26.0767 62.5653 26.0167 62.7387 25.95C62.912 25.8767 63.0853 25.8133 63.2587 25.76C63.4387 25.7 63.5787 25.67 63.6787 25.67C64.0187 25.67 64.322 25.7433 64.5887 25.89C64.8553 26.0367 65.082 26.2333 65.2687 26.48C65.462 26.72 65.6087 26.99 65.7087 27.29C65.8087 27.59 65.8587 27.8933 65.8587 28.2ZM69.9327 30.52C69.9327 30.6133 69.8827 30.6967 69.7827 30.77C69.6893 30.8367 69.5693 30.8933 69.4227 30.94C69.2827 30.98 69.1393 31.01 68.9927 31.03C68.846 31.05 68.7227 31.06 68.6227 31.06C68.1227 31.06 67.776 30.96 67.5827 30.76C67.3893 30.5533 67.2927 30.2133 67.2927 29.74C67.2927 29.1667 67.296 28.5933 67.3027 28.02C67.3093 27.4467 67.3127 26.8733 67.3127 26.3H66.8527C66.786 26.3 66.7293 26.3233 66.6827 26.37C66.636 26.41 66.5927 26.43 66.5527 26.43C66.486 26.43 66.4527 26.3967 66.4527 26.33C66.4527 26.3033 66.466 26.2533 66.4927 26.18C66.5193 26.1067 66.5393 26.06 66.5527 26.04C66.5727 26 66.5927 25.9767 66.6127 25.97C66.6327 25.9633 66.6627 25.96 66.7027 25.96H67.3227V24.89C67.4893 24.7967 67.6727 24.66 67.8727 24.48C68.0727 24.3 68.226 24.1333 68.3327 23.98C68.3527 23.9467 68.3793 23.9133 68.4127 23.88C68.446 23.84 68.486 23.82 68.5327 23.82C68.6393 23.82 68.6893 23.8667 68.6827 23.96L68.6527 25.96H69.6827C69.736 25.96 69.7827 25.9733 69.8227 26C69.8693 26.02 69.8927 26.06 69.8927 26.12C69.8927 26.2467 69.8227 26.31 69.6827 26.31H68.6527L68.6327 30.17C68.6327 30.2767 68.6527 30.38 68.6927 30.48C68.7393 30.5733 68.826 30.62 68.9527 30.62C69.066 30.62 69.1793 30.61 69.2927 30.59C69.4127 30.57 69.5227 30.5367 69.6227 30.49C69.656 30.4767 69.686 30.4633 69.7127 30.45C69.746 30.43 69.7793 30.42 69.8127 30.42C69.8927 30.42 69.9327 30.4533 69.9327 30.52ZM74.3334 28.37C74.3334 28.15 74.3167 27.9 74.2834 27.62C74.2567 27.3333 74.1967 27.0567 74.1034 26.79C74.01 26.5233 73.8734 26.3033 73.6934 26.13C73.52 25.95 73.2834 25.86 72.9834 25.86C72.71 25.86 72.49 25.9467 72.3234 26.12C72.1567 26.2933 72.0267 26.51 71.9334 26.77C71.8467 27.03 71.7867 27.3 71.7534 27.58C71.72 27.8533 71.7034 28.09 71.7034 28.29C71.7034 28.51 71.7167 28.7633 71.7434 29.05C71.7767 29.33 71.84 29.6033 71.9334 29.87C72.0267 30.1367 72.1634 30.3567 72.3434 30.53C72.5234 30.7033 72.7634 30.79 73.0634 30.79C73.3434 30.79 73.5667 30.7067 73.7334 30.54C73.9067 30.3667 74.0367 30.1533 74.1234 29.9C74.21 29.64 74.2667 29.3733 74.2934 29.1C74.32 28.82 74.3334 28.5767 74.3334 28.37ZM75.6934 28.42C75.6934 28.9333 75.5767 29.39 75.3434 29.79C75.11 30.1833 74.79 30.4933 74.3834 30.72C73.9834 30.9467 73.5267 31.06 73.0134 31.06C72.5 31.06 72.0467 30.94 71.6534 30.7C71.26 30.46 70.95 30.1367 70.7234 29.73C70.5034 29.3233 70.3934 28.8667 70.3934 28.36C70.3934 27.8333 70.5034 27.3633 70.7234 26.95C70.9434 26.53 71.2534 26.2 71.6534 25.96C72.0534 25.7133 72.52 25.59 73.0534 25.59C73.64 25.59 74.1267 25.71 74.5134 25.95C74.9067 26.1833 75.2 26.5133 75.3934 26.94C75.5934 27.36 75.6934 27.8533 75.6934 28.42ZM80.4945 28.34C80.4945 28.2 80.4912 28.0333 80.4845 27.84C80.4779 27.64 80.4579 27.4367 80.4245 27.23C80.3979 27.0167 80.3479 26.82 80.2745 26.64C80.2079 26.4533 80.1112 26.3033 79.9845 26.19C79.8579 26.0767 79.6945 26.02 79.4945 26.02C79.2279 26.02 79.0079 26.0967 78.8345 26.25C78.6679 26.4033 78.5312 26.5967 78.4245 26.83V29.44C78.4245 29.6067 78.4545 29.79 78.5145 29.99C78.5812 30.1833 78.6812 30.35 78.8145 30.49C78.9479 30.6233 79.1145 30.69 79.3145 30.69C79.6079 30.69 79.8345 30.61 79.9945 30.45C80.1612 30.2833 80.2779 30.0767 80.3445 29.83C80.4179 29.5833 80.4612 29.3267 80.4745 29.06C80.4879 28.7867 80.4945 28.5467 80.4945 28.34ZM81.8645 28.2C81.8645 28.74 81.7745 29.22 81.5945 29.64C81.4145 30.0533 81.1379 30.38 80.7645 30.62C80.3912 30.8533 79.9179 30.97 79.3445 30.97C79.1979 30.97 79.0345 30.9367 78.8545 30.87C78.6812 30.7967 78.5345 30.7233 78.4145 30.65C78.4145 30.7967 78.4112 30.9433 78.4045 31.09C78.4045 31.2433 78.4079 31.3967 78.4145 31.55V32.36C78.4145 32.42 78.4245 32.48 78.4445 32.54C78.4712 32.6 78.5212 32.63 78.5945 32.63C78.6479 32.63 78.7012 32.6267 78.7545 32.62C78.8145 32.62 78.8712 32.62 78.9245 32.62C79.0179 32.62 79.0645 32.67 79.0645 32.77C79.0645 32.8767 79.0145 32.93 78.9145 32.93C78.7279 32.93 78.5412 32.9233 78.3545 32.91C78.1679 32.8967 77.9779 32.89 77.7845 32.89C77.5912 32.89 77.3945 32.8967 77.1945 32.91C76.9945 32.9233 76.7979 32.93 76.6045 32.93C76.5579 32.93 76.5245 32.91 76.5045 32.87C76.4845 32.8367 76.4745 32.8033 76.4745 32.77C76.4745 32.67 76.5245 32.62 76.6245 32.62C76.6779 32.62 76.7312 32.62 76.7845 32.62C76.8379 32.6267 76.8879 32.63 76.9345 32.63C77.0079 32.63 77.0612 32.6033 77.0945 32.55C77.1279 32.5033 77.1445 32.4467 77.1445 32.38C77.1445 31.4067 77.1445 30.4333 77.1445 29.46C77.1512 28.48 77.1545 27.5033 77.1545 26.53C77.1545 26.4567 77.1445 26.3767 77.1245 26.29C77.1045 26.2033 77.0445 26.16 76.9445 26.16C76.8779 26.16 76.8112 26.1633 76.7445 26.17C76.6845 26.1767 76.6212 26.18 76.5545 26.18C76.5145 26.18 76.4679 26.1733 76.4145 26.16C76.3679 26.14 76.3445 26.1033 76.3445 26.05C76.3445 26.01 76.3579 25.98 76.3845 25.96C76.4112 25.94 76.4412 25.9267 76.4745 25.92C76.5479 25.8933 76.6245 25.8767 76.7045 25.87C76.7845 25.8633 76.8612 25.8533 76.9345 25.84C77.2745 25.78 77.6012 25.7 77.9145 25.6C77.9412 25.5867 77.9679 25.5767 77.9945 25.57C78.0212 25.5567 78.0479 25.55 78.0745 25.55C78.1212 25.55 78.1612 25.59 78.1945 25.67C78.2345 25.75 78.2645 25.8367 78.2845 25.93C78.3112 26.0233 78.3312 26.09 78.3445 26.13C78.4379 26.0767 78.5712 26.0167 78.7445 25.95C78.9179 25.8767 79.0912 25.8133 79.2645 25.76C79.4445 25.7 79.5845 25.67 79.6845 25.67C80.0245 25.67 80.3279 25.7433 80.5945 25.89C80.8612 26.0367 81.0879 26.2333 81.2745 26.48C81.4679 26.72 81.6145 26.99 81.7145 27.29C81.8145 27.59 81.8645 27.8933 81.8645 28.2Z" fill="#5B91BD"/>
</svg>

